# xmcd CD database file
#
# Track frame offsets:
#	150
#	25580
#	48150
#	67835
#	93827
#	118335
#	143715
#	166285
#	185970
#	211962
#	236470
#	261850
#	284420
#	304105
#	330097
#
# Disc length: 4726 seconds
#
# Revision: 0
# Processed by: cddbd v1.5.1PL2 Copyright (c) Steve Scherf et al.
# Submitted via: CDex 1.51
#
DISCID=cc12740f
DTITLE=CHAGE&ASKA - この愛のために/VISION/ASKA the BEST SPECIAL SAMPLER
DYEAR=1999
DGENRE=JPop
TTITLE0=この愛のために
TTITLE1=VISION
TTITLE2=はじまりはいつも雨
TTITLE3=晴天を誉めるなら夕暮れを待て
TTITLE4=止まった時計 (New Version)
TTITLE5=この愛のために
TTITLE6=VISION
TTITLE7=はじまりはいつも雨
TTITLE8=晴天を誉めるなら夕暮れを待て
TTITLE9=止まった時計 (New Version)
TTITLE10=この愛のために
TTITLE11=VISION
TTITLE12=はじまりはいつも雨
TTITLE13=晴天を誉めるなら夕暮れを待て
TTITLE14=止まった時計 (New Version)
EXTD=YEAR: 1999
EXTT0=
EXTT1=
EXTT2=
EXTT3=
EXTT4=
EXTT5=
EXTT6=
EXTT7=
EXTT8=
EXTT9=
EXTT10=
EXTT11=
EXTT12=
EXTT13=
EXTT14=
PLAYORDER=
